# xmcd
#
# Track frame offsets: 
#        183
#        21198
#        42390
#        64285
#        85675
#        108295
#        125330
#        137460
#        158173
#        179508
#        200300
#        218863
#        241330
#        263190
#        285823
#
# Disc length: 4078 seconds
#
# Revision: 1
# Processed by: cddbd v1.5.2PL0 Copyright (c) Steve Scherf et al.
# Submitted via: ExactAudioCopy v1.0b1
#
DISCID=cc0fec0f
DTITLE=Great Leap Forward - Great Leap Forward
DYEAR=1989
DGENRE=Alternative
TTITLE0=Heart And Soul
TTITLE1=How To Be Successfull In A World Of Failure
TTITLE2=Honours In Spades
TTITLE3=Who Works The Weather (A Version)
TTITLE4=Cold In Summer (groove mix)
TTITLE5=Haranguing The Boisterous Buffoons
TTITLE6=Well, Belle
TTITLE7=A Peck On The Cheek (version)
TTITLE8=Weddings, Parties, Anything....
TTITLE9=The Original Sin
TTITLE10=Cursing This Audacity
TTITLE11=The Nose Of The King
TTITLE12=May God Forgive Us, For We Are But Women (V.2)
TTITLE13=Cold In Summer (groove mix no.2)
TTITLE14=Heart And Soul Reprise
EXTD=cheers from hans
EXTT0=
EXTT1=
EXTT2=
EXTT3=
EXTT4=
EXTT5=
EXTT6=
EXTT7=
EXTT8=
EXTT9=
EXTT10=
EXTT11=
EXTT12=
EXTT13=
EXTT14=
PLAYORDER=
